<svg width="28" height="28" viewBox="0 0 28 28" fill="none" xmlns="http://www.w3.org/2000/svg">
<path d="M14.0001 2.3335C11.8342 2.3335 9.75696 3.19391 8.22542 4.72546C6.69387 6.257 5.83346 8.33423 5.83346 10.5002V14.6162C5.83362 14.7971 5.79169 14.9757 5.71096 15.1377L3.70779 19.1428C3.60994 19.3385 3.56373 19.5559 3.57356 19.7745C3.58339 19.993 3.64893 20.2055 3.76396 20.3916C3.87898 20.5777 4.03967 20.7313 4.23077 20.8378C4.42186 20.9443 4.63701 21.0002 4.85579 21.0002H23.1445C23.3632 21.0002 23.5784 20.9443 23.7695 20.8378C23.9606 20.7313 24.1213 20.5777 24.2363 20.3916C24.3513 20.2055 24.4169 19.993 24.4267 19.7745C24.4365 19.5559 24.3903 19.3385 24.2925 19.1428L22.2905 15.1377C22.2093 14.9758 22.167 14.7972 22.1668 14.6162V10.5002C22.1668 8.33423 21.3064 6.257 19.7748 4.72546C18.2433 3.19391 16.1661 2.3335 14.0001 2.3335ZM14.0001 24.5002C13.276 24.5005 12.5696 24.2763 11.9783 23.8584C11.387 23.4405 10.9398 22.8495 10.6985 22.1668H17.3018C17.0604 22.8495 16.6133 23.4405 16.0219 23.8584C15.4306 24.2763 14.7242 24.5005 14.0001 24.5002Z" fill="#949494"/>
</svg>
